<?xml version="1.0" encoding="UTF-8" standalone="no"?>
<!-- Created with Inkscape (http://www.inkscape.org/) -->

<svg
   xmlns:dc="http://purl.org/dc/elements/1.1/"
   xmlns:cc="http://creativecommons.org/ns#"
   xmlns:rdf="http://www.w3.org/1999/02/22-rdf-syntax-ns#"
   xmlns:svg="http://www.w3.org/2000/svg"
   xmlns="http://www.w3.org/2000/svg"
   xmlns:sodipodi="http://sodipodi.sourceforge.net/DTD/sodipodi-0.dtd"
   xmlns:inkscape="http://www.inkscape.org/namespaces/inkscape"
   width="250"
   height="205"
   id="svg2"
   sodipodi:version="0.32"
   inkscape:version="0.47 r22583"
   sodipodi:docname="tutorial2c_sketch.svg"
   inkscape:output_extension="org.inkscape.output.svg.inkscape"
   version="1.0">
  <defs
     id="defs4">
    <inkscape:perspective
       sodipodi:type="inkscape:persp3d"
       inkscape:vp_x="0 : 526.18109 : 1"
       inkscape:vp_y="0 : 1000 : 0"
       inkscape:vp_z="744.09448 : 526.18109 : 1"
       inkscape:persp3d-origin="372.04724 : 350.78739 : 1"
       id="perspective3026" />
    <inkscape:perspective
       id="perspective3635"
       inkscape:persp3d-origin="0.5 : 0.33333333 : 1"
       inkscape:vp_z="1 : 0.5 : 1"
       inkscape:vp_y="0 : 1000 : 0"
       inkscape:vp_x="0 : 0.5 : 1"
       sodipodi:type="inkscape:persp3d" />
  </defs>
  <sodipodi:namedview
     id="base"
     pagecolor="#ffffff"
     bordercolor="#666666"
     borderopacity="1.0"
     inkscape:pageopacity="0.0"
     inkscape:pageshadow="2"
     inkscape:zoom="2.5106232"
     inkscape:cx="54.499548"
     inkscape:cy="102.0132"
     inkscape:document-units="mm"
     inkscape:current-layer="layer1"
     showgrid="true"
     inkscape:object-nodes="true"
     inkscape:grid-points="true"
     gridtolerance="1.3"
     objecttolerance="0.8"
     gridanglex="8.4666669mm"
     gridanglez="8.4666669mm"
     grid_units="mm"
     inkscape:window-width="1399"
     inkscape:window-height="974"
     inkscape:window-x="57"
     inkscape:window-y="0"
     inkscape:window-maximized="0"
     units="pt">
    <inkscape:grid
       id="GridFromPre046Settings"
       type="xygrid"
       originx="0px"
       originy="0px"
       spacingx="2mm"
       spacingy="2mm"
       color="#0000ff"
       empcolor="#ff0400"
       opacity="0.2"
       empopacity="0.37647059"
       empspacing="5"
       units="mm"
       visible="true"
       enabled="true"
       snapvisiblegridlinesonly="true" />
  </sodipodi:namedview>
  <metadata
     id="metadata7">
    <rdf:RDF>
      <cc:Work
         rdf:about="">
        <dc:format>image/svg+xml</dc:format>
        <dc:type
           rdf:resource="http://purl.org/dc/dcmitype/StillImage" />
        <dc:title />
      </cc:Work>
    </rdf:RDF>
  </metadata>
  <g
     inkscape:label="Ebene 1"
     inkscape:groupmode="layer"
     id="layer1"
     transform="translate(-114.19886,19.255464)">
    <path
       style="fill:none;stroke:#000000;stroke-width:2.91644573;stroke-linecap:round;stroke-linejoin:miter;stroke-miterlimit:4;stroke-opacity:1;stroke-dasharray:none;stroke-dashoffset:0"
       d="m 292.43863,75.559443 c 0,29.083897 -23.60435,52.688207 -52.68822,52.688207 -29.08392,0 -52.68818,-23.60431 -52.68818,-52.688207 0,-29.083901 23.60426,-52.688202 52.68818,-52.688202 29.08391,0 52.68822,23.604301 52.68822,52.688202 z"
       id="path37307" />
    <g
       id="g38103"
       style="fill:none;stroke:#000000;stroke-width:0.625;stroke-miterlimit:4;stroke-opacity:1;stroke-dasharray:none"
       transform="matrix(4.6663129,0,0,4.6663129,-1242.7479,-57.338034)">
      <path
         id="path38105"
         style="fill:none;stroke:#000000;stroke-width:0.625;stroke-linecap:butt;stroke-linejoin:miter;stroke-miterlimit:4;stroke-opacity:1;stroke-dasharray:none"
         d="m 291.10885,24.772314 6.48497,0.02214 c 3.35206,-13.407233 11.42324,-16.3201141 20.32977,-16.3207844 8.90637,-6.702e-4 16.34147,2.3839234 19.96964,16.3207844 l 6.16611,0.03299 m -0.0331,6.854657 -6.1677,-0.03489 c -3.36971,13.202794 -11.16975,17.013197 -20.07612,17.012527 -8.90653,-6.7e-4 -16.67166,-3.363359 -20.32977,-17.012527 l -6.27014,-0.02403"
         sodipodi:nodetypes="ccsccccscc" />
    </g>
    <path
       sodipodi:type="arc"
       style="opacity:0.95;fill:#ff0000;fill-opacity:1;stroke:none"
       id="path3602"
       sodipodi:cx="64.400978"
       sodipodi:cy="74.404541"
       sodipodi:rx="0.98904526"
       sodipodi:ry="0.98904526"
       d="m 65.390023,74.404541 c 0,0.546235 -0.44281,0.989045 -0.989045,0.989045 -0.546235,0 -0.989045,-0.44281 -0.989045,-0.989045 0,-0.546235 0.44281,-0.989045 0.989045,-0.989045 0.546235,0 0.989045,0.44281 0.989045,0.989045 z"
       transform="matrix(4.6663129,0,0,4.6663129,-62.675572,-272.11353)" />
    <path
       style="fill:none;stroke:#ff0000;stroke-width:2.33315659;stroke-linecap:butt;stroke-linejoin:miter;stroke-miterlimit:4;stroke-opacity:1;stroke-dasharray:4.66631287, 2.33315643;stroke-dashoffset:0"
       d="M 237.70766,74.685746 237.44391,183.60434"
       id="path3604"
       sodipodi:nodetypes="cc" />
    <g
       transform="matrix(1.2202792,0,0,-1.2202792,244.56422,79.414671)"
       inkscape:label="phi"
       id="g3637">
      <g
         transform="scale(0.1,0.1)"
         id="g3639">
        <path
           id="path3641"
           style="fill:#ff0000;fill-opacity:1;fill-rule:nonzero;stroke:none"
           d="m 125.012,52.4102 c 55.929,4.3203 96,37.7695 96,74.1018 0,37.41 -41.153,70.136 -96,74.476 l 0,19.934 c 0,12.098 0,17.09 34.136,17.09 l 11.864,0 0,11 c -12.91,-1.071 -45.91,-1.071 -60.614,-1.071 -14.7066,0 -48.0582,0 -60.9683,1.071 l 0,-11 11.75,0 c 33.832,0 33.832,-4.633 33.832,-17.09 l 0,-19.934 C 40.2812,195.57 2.01172,162.48 2.01172,126.871 2.01172,89.8203 41.6992,57.8086 95.0117,52.4102 l 0,-20.1407 C 95.0117,20.0391 95.0117,15 61.1797,15 l -11.75,0 0,-11 c 12.9101,1.07031 45.9101,1.07031 60.6093,1.07031 14.711,0 48.063,0 60.973,-1.07031 l 0,11 -11.864,0 c -34.136,0 -34.136,4.6797 -34.136,17.2695 l 0,20.1407 z M 95,60 c -50.5781,6.8789 -56.9883,43.84 -56.9883,66.301 0,18.84 3.5586,59.418 56.9883,66.687 L 95,60 z m 30.012,132.988 C 174.871,187.219 185,154.059 185,126.672 185,105.051 179.57,66.4805 125.012,60" />
      </g>
    </g>
  </g>
</svg>
